<svg class="svg-icon" style="width: 1em; height: 1em;vertical-align: middle;fill: currentColor;overflow: hidden;" viewBox="0 0 1024 1024" version="1.1" xmlns="http://www.w3.org/2000/svg"><path d="M535.976 707.3v-46.201c39.582-2.78 71.091-11.486 93.661-25.88 22.742-14.504 34.272-33.585 34.272-56.71 0-21.161-10.291-38.885-30.588-52.677-20.145-13.681-52.893-26.362-97.345-37.694v-82.963c36.143 2.38 68.975 9.625 97.598 21.538l0.696 0.29v-56.117l-0.332-0.12c-21.976-7.939-54.936-12.637-97.963-13.963V318.28h-45.901v39.319c-36.489 2.014-66.918 11.056-90.445 26.877-23.706 15.937-35.726 35.148-35.726 57.097 0 21.814 10.387 40.294 30.872 54.927 20.336 14.533 52.398 27.119 95.299 37.413v79.836c-17.205-0.441-38.366-3.571-62.908-9.308-24.776-5.787-43.243-12.016-54.888-18.515l-0.748-0.417v57.397l0.331 0.12c34.772 12.62 74.54 19.172 118.212 19.478V707.3h45.903zM445.6 438.037c0-17.452 14.964-28.231 44.475-32.043v69.646c-29.513-10.307-44.475-22.957-44.475-37.603z m136.318 143.417c0 17.454-15.458 27.973-45.942 31.269v-66.737c30.486 9.415 45.942 21.347 45.942 35.468z" fill="#58A80A" /><path d="M816.545 624.709l30.825 3.809-7.988 18.484c-57.78 133.699-189.212 220.089-334.841 220.089-87.529 0-172.159-31.481-238.3-88.644-59.036-51.021-100.062-119.46-117.228-194.787l-49.088 38.47c52.637 178.421 217.599 302.174 404.616 302.174 215.326 0 393.7-160.611 418.801-370.99l-106.797 71.395z" fill="#FCDE9E" /><path d="M803.066 653.442c-56.701 112.106-171.75 183.482-298.525 183.482-166.055 0-305.035-118.893-330.464-282.702l-3.949-25.438-104.631 81.997 2.599 9.64c12.807 47.505 33.236 92.386 60.722 133.397 27.05 40.361 60.237 75.953 98.636 105.789 38.799 30.145 81.895 53.606 128.091 69.729 47.79 16.68 97.919 25.138 148.995 25.138 116.963 0 227.909-44.512 312.398-125.337 84.216-80.563 133.61-188.891 139.083-305.031l1.407-29.869-225.074 150.465 70.712 8.74zM504.541 924.305c-187.017 0-351.979-123.753-404.616-302.174l49.088-38.469c17.165 75.327 58.192 143.766 117.228 194.787 66.141 57.163 150.771 88.644 238.3 88.644 145.629 0 277.061-86.39 334.841-220.089l7.988-18.484-30.825-3.809 106.797-71.395c-25.101 210.378-203.475 370.989-418.801 370.989z" fill="#58A80A" /><path d="M100.163 468.48l112.752-71.626-36.682-4.48 8.001-18.513c57.78-133.699 189.213-220.089 334.84-220.089 87.528 0 172.159 31.481 238.3 88.644 59.036 51.022 100.062 119.461 117.228 194.788l49.088-38.469C871.053 220.314 706.091 96.56 519.074 96.56c-215.643 0-394.226 161.084-418.911 371.92z" fill="#FCDE9E" /><path d="M220.563 367.394c56.706-112.093 171.744-183.453 298.511-183.453 166.055 0 305.035 118.894 330.463 282.702l3.949 25.438 104.631-81.997-2.599-9.64c-12.807-47.505-33.237-92.386-60.723-133.396-27.05-40.361-60.236-75.953-98.637-105.789-38.798-30.145-81.895-53.606-128.091-69.729-47.79-16.68-97.92-25.137-148.995-25.137-116.964 0-227.909 44.512-312.398 125.336-84.214 80.561-133.608 188.89-139.081 305.03l-1.368 29.021 234.009-148.656-79.671-9.73z m703.127 31.341l-49.088 38.469c-17.165-75.327-58.192-143.766-117.228-194.788-66.141-57.163-150.771-88.644-238.3-88.644-145.628 0-277.06 86.39-334.84 220.089l-8.001 18.513 36.682 4.48-112.752 71.626C124.848 257.644 303.431 96.56 519.074 96.56c187.017 0 351.979 123.754 404.616 302.175z" fill="#58A80A" /></svg>