<?xml version="1.0" standalone="no"?>
<!DOCTYPE svg PUBLIC "-//W3C//DTD SVG 20010904//EN"
 "http://www.w3.org/TR/2001/REC-SVG-20010904/DTD/svg10.dtd">
<svg version="1.0" xmlns="http://www.w3.org/2000/svg"
 width="200.000000pt" height="200.000000pt" viewBox="0 0 200.000000 200.000000"
 preserveAspectRatio="xMidYMid meet">

<g transform="translate(0.000000,200.000000) scale(0.100000,-0.100000)"
fill="#000000" stroke="none">
<path d="M704 1745 c-406 -88 -671 -490 -588 -893 73 -357 381 -611 742 -612
122 0 221 24 341 81 92 45 115 62 195 142 50 51 106 118 125 149 48 83 92 217
98 304 l6 75 97 -96 c103 -100 130 -113 163 -77 36 40 24 60 -136 219 -127
128 -158 153 -182 153 -24 0 -55 -25 -182 -153 -161 -161 -175 -184 -135 -220
36 -33 61 -21 160 76 l95 92 -6 -65 c-12 -132 -79 -269 -183 -374 -118 -117
-250 -175 -421 -184 -153 -7 -278 28 -406 117 -116 79 -222 242 -252 386 -71
342 142 680 480 760 33 8 79 15 103 15 l42 0 0 60 0 60 -47 -1 c-27 0 -76 -7
-109 -14z"/>
<path d="M807 1453 c-4 -3 -7 -24 -7 -45 0 -28 -5 -40 -17 -44 -164 -51 -239
-170 -184 -290 23 -51 71 -88 142 -113 l54 -18 3 -82 c3 -94 6 -93 -90 -45
-63 32 -101 31 -127 -2 -56 -71 13 -141 168 -175 50 -10 50 -11 53 -52 l3 -42
58 -3 57 -3 0 44 0 44 45 6 c82 12 160 67 184 130 6 16 11 53 11 84 0 99 -55
159 -182 199 l-58 18 0 78 c0 91 4 93 85 53 61 -30 75 -31 109 -4 40 31 36 80
-8 114 -41 31 -125 65 -161 65 -23 0 -25 4 -25 45 l0 45 -53 0 c-30 0 -57 -3
-60 -7z m-7 -293 c0 -46 -3 -60 -15 -60 -25 0 -47 44 -36 73 8 20 33 45 49 47
1 0 2 -27 2 -60z m193 -277 c38 -35 13 -94 -45 -108 l-28 -7 0 72 0 72 28 -7
c15 -3 35 -14 45 -22z"/>
</g>
</svg>
